<svg width="24" height="24" viewBox="0 0 24 24" fill="none" xmlns="http://www.w3.org/2000/svg">
<path fill-rule="evenodd" clip-rule="evenodd" d="M4.5 2.5C3.67157 2.5 3 3.17157 3 4V20C3 20.8284 3.67157 21.5 4.5 21.5H10C10.8284 21.5 11.5 20.8284 11.5 20V11.7856L13.8432 20.5307C14.0577 21.3309 14.8802 21.8058 15.6804 21.5913L20.9929 20.1678C21.7931 19.9534 22.268 19.1309 22.0536 18.3307L18.4301 4.80776C18.2157 4.00757 17.3932 3.53269 16.593 3.7471L11.5 5.11178V4C11.5 3.17157 10.8284 2.5 10 2.5H4.5ZM5 6.5V4.5H9.5V6.5H5ZM5 8.5H9.5V15.5H5V8.5ZM5 17.5H9.5V19.5H5V17.5ZM14.6104 15.6664L12.281 6.97305L16.6277 5.80837L18.9571 14.5017L14.6104 15.6664ZM15.128 17.5982L19.4747 16.4335L19.9923 18.3654L15.6457 19.5301L15.128 17.5982ZM14.2476 8.51667C13.7141 8.65962 13.3975 9.20795 13.5405 9.74142C13.6834 10.2749 14.2317 10.5915 14.7652 10.4485L16.2141 10.0603C16.7476 9.91736 17.0641 9.36902 16.9212 8.83555C16.7783 8.30209 16.2299 7.9855 15.6964 8.12845L14.2476 8.51667Z" fill="black"/>
</svg>
