<svg width="24" height="24" viewBox="0 0 24 24" fill="none" xmlns="http://www.w3.org/2000/svg">
<path fill-rule="evenodd" clip-rule="evenodd" d="M2.7704 11.6971C3.28853 10.7415 4.34178 9.04124 5.91431 7.59106C7.48182 6.1455 9.50559 5 11.9999 5C14.4941 5 16.5179 6.1455 18.0854 7.59105C19.658 9.04124 20.7112 10.7415 21.2293 11.6971C21.334 11.8902 21.334 12.1098 21.2293 12.3029C20.7112 13.2585 19.658 14.9588 18.0854 16.4089C16.5179 17.8545 14.4941 19 11.9999 19C9.50559 19 7.48182 17.8545 5.91431 16.4089C4.34178 14.9588 3.28853 13.2585 2.7704 12.3029C2.66573 12.1098 2.66573 11.8902 2.7704 11.6971ZM11.9999 3C8.84569 3 6.36047 4.45899 4.55845 6.1208C2.76147 7.77798 1.58465 9.688 1.0122 10.7438C0.585127 11.5315 0.585127 12.4685 1.0122 13.2562C1.58465 14.312 2.76147 16.222 4.55845 17.8792C6.36047 19.541 8.84569 21 11.9999 21C15.1541 21 17.6393 19.541 19.4413 17.8792C21.2383 16.222 22.4151 14.312 22.9875 13.2562C23.4146 12.4685 23.4146 11.5315 22.9875 10.7438C22.4151 9.68799 21.2383 7.77798 19.4413 6.1208C17.6393 4.45899 15.1541 3 11.9999 3ZM9.49988 12C9.49988 10.6193 10.6192 9.5 11.9999 9.5C13.3806 9.5 14.4999 10.6193 14.4999 12C14.4999 13.3807 13.3806 14.5 11.9999 14.5C10.6192 14.5 9.49988 13.3807 9.49988 12ZM11.9999 7.5C9.5146 7.5 7.49988 9.51472 7.49988 12C7.49988 14.4853 9.5146 16.5 11.9999 16.5C14.4852 16.5 16.4999 14.4853 16.4999 12C16.4999 9.51472 14.4852 7.5 11.9999 7.5Z" fill="black"/>
</svg>
