<svg width="24" height="24" viewBox="0 0 24 24" fill="none" xmlns="http://www.w3.org/2000/svg">
<path fill-rule="evenodd" clip-rule="evenodd" d="M13.8787 2.70729C15.0503 1.53572 16.9498 1.53572 18.1213 2.70729L21.2929 5.87887C22.4645 7.05044 22.4645 8.94993 21.2929 10.1215L10.4714 20.943L3.14143 21.9901C2.82984 22.0346 2.51547 21.9299 2.2929 21.7073C2.07034 21.4847 1.96555 21.1704 2.01006 20.8588L3.0572 13.5288L13.8787 2.70729ZM16.7071 4.12151C16.3166 3.73098 15.6834 3.73098 15.2929 4.12151L14.4142 5.00019L19 9.58597L19.8787 8.70729C20.2692 8.31677 20.2692 7.6836 19.8787 7.29308L16.7071 4.12151ZM17.5858 11.0002L13 6.4144L5.41422 14.0002L10 18.586L17.5858 11.0002ZM7.87869 19.2931L4.70712 16.1215L4.17852 19.8217L7.87869 19.2931Z" fill="black"/>
</svg>
