<svg width="24" height="24" viewBox="0 0 24 24" fill="none" xmlns="http://www.w3.org/2000/svg">
<path fill-rule="evenodd" clip-rule="evenodd" d="M11 3.5C10.1716 3.5 9.5 4.17157 9.5 5C9.5 5.33883 9.61115 5.64882 9.79938 5.89942C10.0269 6.20238 10.0637 6.60793 9.89441 6.94689C9.72508 7.28585 9.37872 7.5 8.99982 7.5L4.5 7.5V9.53544C6.19615 9.77806 7.5 11.2368 7.5 13C7.5 14.7632 6.19615 16.2219 4.5 16.4646V19.5H7.53544C7.77806 17.8039 9.23676 16.5 11 16.5C12.7632 16.5 14.2219 17.8039 14.4646 19.5H16.5V15.0002C16.5 14.6213 16.7141 14.2749 17.0531 14.1056C17.3921 13.9363 17.7976 13.9731 18.1006 14.2006C18.3512 14.3889 18.6612 14.5 19 14.5C19.8284 14.5 20.5 13.8284 20.5 13C20.5 12.1716 19.8284 11.5 19 11.5C18.6612 11.5 18.3512 11.6111 18.1006 11.7994C17.7976 12.0269 17.3921 12.0637 17.0531 11.8944C16.7141 11.7251 16.5 11.3787 16.5 10.9998V7.5H13.0002C12.6213 7.5 12.2749 7.28585 12.1056 6.94689C11.9363 6.60793 11.9731 6.20238 12.2006 5.89942C12.3889 5.64882 12.5 5.33883 12.5 5C12.5 4.17157 11.8284 3.5 11 3.5ZM7.5 5C7.5 3.067 9.067 1.5 11 1.5C12.933 1.5 14.5 3.067 14.5 5C14.5 5.16965 14.4879 5.3366 14.4644 5.5H16.5C17.6046 5.5 18.5 6.39543 18.5 7.5V9.53555C18.6634 9.51213 18.8303 9.5 19 9.5C20.933 9.5 22.5 11.067 22.5 13C22.5 14.933 20.933 16.5 19 16.5C18.8303 16.5 18.6634 16.4879 18.5 16.4644V19.5C18.5 20.6046 17.6046 21.5 16.5 21.5H13.45C13.1499 21.5 12.8657 21.3652 12.6757 21.1329C12.4858 20.9005 12.4103 20.5952 12.47 20.3011C12.4896 20.2046 12.5 20.104 12.5 20C12.5 19.1716 11.8284 18.5 11 18.5C10.1716 18.5 9.5 19.1716 9.5 20C9.5 20.104 9.51044 20.2046 9.53002 20.3011C9.58972 20.5952 9.51419 20.9005 9.32426 21.1329C9.13434 21.3652 8.85011 21.5 8.55001 21.5H4.5C3.39543 21.5 2.5 20.6046 2.5 19.5V15.45C2.5 15.1499 2.63477 14.8657 2.86712 14.6757C3.09947 14.4858 3.40483 14.4103 3.69893 14.47C3.79538 14.4896 3.89595 14.5 4 14.5C4.82843 14.5 5.5 13.8284 5.5 13C5.5 12.1716 4.82843 11.5 4 11.5C3.89595 11.5 3.79538 11.5104 3.69893 11.53C3.40483 11.5897 3.09947 11.5142 2.86712 11.3243C2.63477 11.1343 2.5 10.8501 2.5 10.55V7.5C2.5 6.39543 3.39543 5.5 4.5 5.5H7.53555C7.51213 5.3366 7.5 5.16965 7.5 5Z" fill="black"/>
</svg>
