<svg width="24" height="24" viewBox="0 0 24 24" fill="none" xmlns="http://www.w3.org/2000/svg">
<path fill-rule="evenodd" clip-rule="evenodd" d="M4.22182 2.2216C4.61235 1.83108 5.24551 1.83108 5.63604 2.2216C6.02656 2.61213 6.02656 3.24529 5.63604 3.63582C4.80031 4.47154 4.13738 5.4637 3.68508 6.55563C3.23279 7.64756 3 8.81788 3 9.99978C3 11.1817 3.23279 12.352 3.68508 13.4439C4.13738 14.5359 4.80031 15.528 5.63604 16.3637C6.02656 16.7543 6.02656 17.3874 5.63604 17.778C5.24551 18.1685 4.61235 18.1685 4.22182 17.778C3.20038 16.7565 2.39013 15.5439 1.83733 14.2093C1.28452 12.8747 1 11.4443 1 9.99978C1 8.55524 1.28452 7.12484 1.83733 5.79026C2.39013 4.45568 3.20038 3.24305 4.22182 2.2216ZM19.7782 2.2216C19.3876 1.83108 18.7545 1.83108 18.364 2.2216C17.9734 2.61213 17.9734 3.24529 18.364 3.63582C19.1997 4.47154 19.8626 5.4637 20.3149 6.55563C20.7672 7.64756 21 8.81788 21 9.99978C21 11.1817 20.7672 12.352 20.3149 13.4439C19.8626 14.5359 19.1997 15.528 18.364 16.3637C17.9734 16.7543 17.9734 17.3874 18.364 17.778C18.7545 18.1685 19.3876 18.1685 19.7782 17.778C20.7996 16.7565 21.6099 15.5439 22.1627 14.2093C22.7155 12.8747 23 11.4443 23 9.99978C23 8.55524 22.7155 7.12484 22.1627 5.79026C21.6099 4.45568 20.7996 3.24305 19.7782 2.2216ZM15.5355 5.05003C15.9261 4.65951 16.5592 4.65951 16.9497 5.05003C17.5998 5.70004 18.1154 6.47172 18.4672 7.321C18.8189 8.17028 19 9.08053 19 9.99978C19 10.919 18.8189 11.8293 18.4672 12.6786C18.1154 13.5278 17.5998 14.2995 16.9497 14.9495C16.5592 15.3401 15.9261 15.3401 15.5355 14.9495C15.145 14.559 15.145 13.9258 15.5355 13.5353C15.9998 13.071 16.3681 12.5198 16.6194 11.9132C16.8707 11.3066 17 10.6564 17 9.99978C17 9.34317 16.8707 8.69299 16.6194 8.08636C16.3681 7.47974 15.9998 6.92854 15.5355 6.46425C15.145 6.07372 15.145 5.44056 15.5355 5.05003ZM7.05024 5.05003C7.44076 4.65951 8.07393 4.65951 8.46445 5.05003C8.85498 5.44056 8.85498 6.07372 8.46445 6.46425C8.00016 6.92854 7.63186 7.47974 7.38059 8.08636C7.12932 8.69299 6.99999 9.34317 6.99999 9.99978C6.99999 10.6564 7.12932 11.3066 7.38059 11.9132C7.63186 12.5198 8.00016 13.071 8.46445 13.5353C8.85498 13.9258 8.85498 14.559 8.46445 14.9495C8.07393 15.3401 7.44076 15.3401 7.05024 14.9495C6.40023 14.2995 5.88461 13.5278 5.53283 12.6786C5.18105 11.8293 4.99999 10.919 4.99999 9.99978C4.99999 9.08053 5.18105 8.17028 5.53283 7.321C5.88461 6.47172 6.40023 5.70004 7.05024 5.05003ZM12 8.99976C11.4477 8.99976 11 9.44747 11 9.99976C11 10.552 11.4477 10.9998 12 10.9998C12.5523 10.9998 13 10.552 13 9.99976C13 9.44747 12.5523 8.99976 12 8.99976ZM13 12.8291C14.1652 12.4172 15 11.306 15 9.99976C15 8.3429 13.6568 6.99976 12 6.99976C10.3431 6.99976 8.99999 8.3429 8.99999 9.99976C8.99999 11.306 9.8348 12.4172 11 12.8291V20.9998C11 21.552 11.4477 21.9998 12 21.9998C12.5523 21.9998 13 21.552 13 20.9998V12.8291Z" fill="black"/>
</svg>
